<?xml version="1.0" encoding="utf-8"?>
<!-- Generator: Adobe Illustrator 26.1.0, SVG Export Plug-In . SVG Version: 6.00 Build 0)  -->
<svg version="1.1" id="Слой_1" xmlns="http://www.w3.org/2000/svg" xmlns:xlink="http://www.w3.org/1999/xlink" x="0px" y="0px"
	 viewBox="0 0 379.8 356.3" style="enable-background:new 0 0 379.8 356.3;" xml:space="preserve">
<style type="text/css">
	.st0{fill-rule:evenodd;clip-rule:evenodd;fill:#EE721A;}
	.st1{fill-rule:evenodd;clip-rule:evenodd;fill:#0C3E64;}
</style>
<g id="Слой_1_00000063605559141667548880000009739602595094875531_">
	<g>
		<path class="st0" d="M159.1,0c-0.9-1.9-4.6,18.5-33.2,39.4c-28.9,20.7-6.8,51.2-7.2,50c-0.3-0.9,1.2-23.3,28.4-38.4
			C172.8,29.4,163.9,10.1,159.1,0L159.1,0z M173,5.3c13.4,6.7,54.6,44.7,21.4,73.5c-32.4,26-24,58.7-26.4,61.8
			c-2.6,3.1-49.5-52.1-14.7-81.3C187.5,29.9,167.8,2.9,173,5.3z M214,34.7c19.7,10.1,61.1,59.8,24,91.1
			c-28.4,23.3-46.1,45.2-48.1,52.1c-3.1-9.8-20.5-57.5,8.2-85.6C230.8,60.4,212.5,33.9,214,34.7L214,34.7z M127.7,89.2
			c0.3,9.8,5.5,27.9,30.7,53.6s7.4,46.9,7.4,46.9s-4.3-14-30.1-31C113.2,140.4,127.7,89.2,127.7,89.2z"/>
		<path class="st0" d="M0,310.4h380l-0.9-2.7H0.9L0,310.4z"/>
		<path class="st0" d="M295.6,258.4l11.5-52.1c12.5,0,39.9-3.4,44.2,8.6l28.8,84.6l-46.1-0.3L316.3,226l-13.2,73.5h-26.7l-39.9-66.1
			l6.3,66.4h-13.7l-8.6-92.8c12.8,0,28.3-0.5,40.8-0.5L295.6,258.4z"/>
		<path class="st0" d="M198,205.8l5.5,93.7h-49.5l3.8-93.5L198,205.8z"/>
		<path class="st0" d="M83.2,299.6c-2.1-24.5,12.3-43.8-8.2-46.1c-4.8-0.9-9.9-1.2-14.7-1.7l-9.1,47.8H6c-0.9,0-2.2-0.3-3.1-0.5
			c-0.9-0.3-1.7-0.9-2.1-2.1c-0.3-0.5-0.5-1.7-0.5-2.6l28.3-80.7c3.8-10.3,37.8-8,56.2-8.2c16.8,0,31.3,1.2,40.8,6
			c8.9,4.6,11.6,10.8,11.5,17.6c0,2.6-0.5,5.5-2.2,7.7c-1.7,2.2-3.8,4.3-6.3,5.5c-6,3.1-9.1,4.3-26.7,6.8
			c17.3,3.1,20.7,4.3,23.6,8.6c6,8.9-0.9,29.6,5.5,41.8H83.2L83.2,299.6z M68.7,214.5C68.3,214.5,68.3,214.5,68.7,214.5
			c-2.1,5.5-6.3,26.7-7.2,30c0,0.3,0.3,0.3,0.5,0.3c6,0.3,15.1,0.3,19.7-0.9c15.6-4.3,16.3-18,11.1-24.8
			C89.2,213.1,74.1,213.7,68.7,214.5z"/>
		<path class="st1" d="M50.3,327.9h-38v21.1h38v-7.2H30.7v-5.8h31.5v12c0,1,0,2.6-0.5,3.3c-0.5,1-1,2.2-2.2,2.7
			c-1.9,1-5.3,1.7-10.3,1.7h-36c-5,0-8.4-0.5-10.3-1.7c-0.9-0.5-1.9-1.7-2.2-2.7c-0.5-1-0.5-2.2-0.5-3.3v-17.8c-0.3-1,0-2.6,0.5-3.3
			c0.5-1,1-2.2,2.2-2.7c1.9-1,5.3-1.7,10.3-1.7h36c5,0,8.4,0.5,10.3,1.7c0.9,0.5,1.7,1.7,2.2,2.6s0.5,2.2,0.5,3.3v0.9l-12,1v-3.9
			H50.3z M122.3,327.5H94.5v9.4h27.7c1.7,0,2.7,0,4.5-0.5c0.3-0.3,0.5-0.5,0.9-0.9c0.3-0.3,0.3-0.9,0.3-1v-4.1c0-0.3,0-0.9-0.3-1
			c-0.3-0.2-0.5-0.5-0.9-0.9C125,327.5,123.6,327.5,122.3,327.5L122.3,327.5z M82.4,355.6v-33.7h44.5c3.1-0.3,6.2,0.3,8.9,1.7
			c0.9,0.5,1.7,1,2.2,2.2c0.5,0.9,0.5,1.9,0.5,2.7v8c0,0.9-0.3,1.9-0.5,2.7c-0.5,0.9-1,1.7-2.2,2.2c-2.7,1-5.8,1.9-8.9,1.7H120
			l23.6,12.7h-17.5l-20.7-12.7H94.2V356H82.5v-0.3H82.4z M169.7,348.9h40.2v-21.1h-40.2V348.9z M158.1,329.8c0-1,0-2.6,0.5-3.3
			c0.3-1,1-2.2,2.2-2.7c1.9-1,5.3-1.7,10.3-1.7h38c5.3,0,8.4,0.5,10.3,1.7c0.9,0.5,1.7,1.9,2.2,2.7c0.3,1,0.5,2.2,0.3,3.3v17.8
			c0,1,0,2.6-0.5,3.3c-0.5,1-1,2.2-2.2,2.7c-1.9,1-5.3,1.7-10.3,1.7h-38c-5,0-8.4-0.5-10.3-1.7c-0.9-0.5-1.7-1.9-2.2-2.7
			c-0.3-1-0.5-2.2-0.5-3.3v-17.8H158.1z M254.8,321.5v27.7h34.4v-27.7h12.2v25.7c0,1,0,2.6-0.5,3.3c-0.5,0.9-1,2.2-2.2,2.7
			c-1.9,1-5.3,1.7-10.3,1.7h-33c-5,0-8.4-0.5-10.3-1.7c-0.9-0.5-1.9-1.7-2.2-2.7c-0.5-1-0.5-2.6-0.5-3.3v-25.7H254.8L254.8,321.5z
			 M323.6,355.6v-33.7h44.5c3.1-0.3,6.2,0.3,8.9,1.7c0.9,0.5,1.7,1,2.2,2.2c0.5,0.9,0.5,1.9,0.5,2.7v7.5c0,0.9,0,1.9-0.5,2.7
			s-1,1.7-2.2,2.2c-2.7,1-5.8,1.9-8.9,1.7h-33v13.4L323.6,355.6z M363,327.5h-27.7v8.9H363c1.7,0,2.7,0,4.5-0.5
			c0.3-0.3,0.5-0.5,0.9-0.9c0.3-0.3,0.3-0.9,0.3-1v-3.6c0-0.3,0-0.9-0.3-1c-0.3-0.3-0.5-0.5-0.9-0.9
			C366.3,327.5,364.7,327.5,363,327.5L363,327.5z"/>
	</g>
</g>
<g id="grid">
</g>
</svg>
